<?xml version="1.0" encoding="UTF-8" standalone="no"?>
<!DOCTYPE svg PUBLIC "-//W3C//DTD SVG 1.1//EN"
 "http://www.w3.org/Graphics/SVG/1.1/DTD/svg11.dtd">
<!-- Generated by graphviz version 2.36.0 (20140111.2315)
 -->
<!-- Title: G Pages: 1 -->
<svg width="772pt" height="1430pt"
 viewBox="0.00 0.00 772.00 1430.00" xmlns="http://www.w3.org/2000/svg" xmlns:xlink="http://www.w3.org/1999/xlink">
<g id="graph0" class="graph" transform="scale(1 1) rotate(0) translate(4 1426)">
<title>G</title>
<polygon fill="white" stroke="none" points="-4,4 -4,-1426 768,-1426 768,4 -4,4"/>
<g id="clust1" class="cluster"><title>cluster_Global</title>
<path fill="none" stroke="gray" d="M20,-8C20,-8 744,-8 744,-8 750,-8 756,-14 756,-20 756,-20 756,-1402 756,-1402 756,-1408 750,-1414 744,-1414 744,-1414 20,-1414 20,-1414 14,-1414 8,-1408 8,-1402 8,-1402 8,-20 8,-20 8,-14 14,-8 20,-8"/>
<text text-anchor="middle" x="382" y="-1401.2" font-family="Times,serif" font-size="11.00" fill="gray">Global</text>
</g>
<g id="clust2" class="cluster"><title>cluster_\lib</title>
<path fill="none" stroke="gray" d="M28,-16C28,-16 736,-16 736,-16 742,-16 748,-22 748,-28 748,-28 748,-1374 748,-1374 748,-1380 742,-1386 736,-1386 736,-1386 28,-1386 28,-1386 22,-1386 16,-1380 16,-1374 16,-1374 16,-28 16,-28 16,-22 22,-16 28,-16"/>
<text text-anchor="middle" x="382" y="-1373.2" font-family="Times,serif" font-size="11.00" fill="gray">lib</text>
</g>
<g id="clust3" class="cluster"><title>cluster_\lib\Helper</title>
<path fill="none" stroke="gray" d="M222,-772C222,-772 720,-772 720,-772 726,-772 732,-778 732,-784 732,-784 732,-1346 732,-1346 732,-1352 726,-1358 720,-1358 720,-1358 222,-1358 222,-1358 216,-1358 210,-1352 210,-1346 210,-1346 210,-784 210,-784 210,-778 216,-772 222,-772"/>
<text text-anchor="middle" x="471" y="-1345.2" font-family="Times,serif" font-size="11.00" fill="gray">Helper</text>
</g>
<g id="clust4" class="cluster"><title>cluster_\lib\Helper\Writer</title>
<path fill="none" stroke="gray" d="M415,-1150C415,-1150 712,-1150 712,-1150 718,-1150 724,-1156 724,-1162 724,-1162 724,-1318 724,-1318 724,-1324 718,-1330 712,-1330 712,-1330 415,-1330 415,-1330 409,-1330 403,-1324 403,-1318 403,-1318 403,-1162 403,-1162 403,-1156 409,-1150 415,-1150"/>
<text text-anchor="middle" x="563.5" y="-1317.2" font-family="Times,serif" font-size="11.00" fill="gray">Writer</text>
</g>
<!-- \\lib\\Helper\\Writer\\References -->
<g id="node1" class="node"><title>\\lib\\Helper\\Writer\\References</title>
<polygon fill="none" stroke="black" points="716,-1302 632,-1302 632,-1266 716,-1266 716,-1302"/>
<text text-anchor="middle" x="674" y="-1281.2" font-family="Courier,monospace" font-size="11.00">References</text>
</g>
<!-- \\lib\\Helper\\Writer\\AbstractWriter -->
<g id="node2" class="node"><title>\\lib\\Helper\\Writer\\AbstractWriter</title>
<polygon fill="none" stroke="black" points="522.5,-1248 411.5,-1248 411.5,-1212 522.5,-1212 522.5,-1248"/>
<text text-anchor="start" x="433" y="-1233.2" font-family="Courier,monospace" font-size="11.00">«abstract»</text>
<text text-anchor="start" x="419.5" y="-1221.2" font-family="Courier,monospace" font-size="11.00">AbstractWriter</text>
</g>
<!-- \\lib\\Helper\\Writer\\References&#45;&gt;\\lib\\Helper\\Writer\\AbstractWriter -->
<g id="edge2" class="edge"><title>\\lib\\Helper\\Writer\\References&#45;&gt;\\lib\\Helper\\Writer\\AbstractWriter</title>
<path fill="none" stroke="black" d="M631.515,-1273.07C603.1,-1265.59 564.849,-1255.51 532.487,-1246.99"/>
<polygon fill="none" stroke="black" points="533.212,-1243.56 522.65,-1244.4 531.429,-1250.33 533.212,-1243.56"/>
</g>
<!-- \\lib\\Helper\\IWritable -->
<g id="node13" class="node"><title>\\lib\\Helper\\IWritable</title>
<polygon fill="none" stroke="black" points="295.5,-1248 218.5,-1248 218.5,-1212 295.5,-1212 295.5,-1248"/>
<text text-anchor="middle" x="257" y="-1227.2" font-family="Courier,monospace" font-size="11.00">IWritable</text>
</g>
<!-- \\lib\\Helper\\Writer\\AbstractWriter&#45;&gt;\\lib\\Helper\\IWritable -->
<g id="edge3" class="edge"><title>\\lib\\Helper\\Writer\\AbstractWriter&#45;&gt;\\lib\\Helper\\IWritable</title>
<path fill="none" stroke="black" stroke-dasharray="1,5" d="M411.35,-1230C378.584,-1230 337.309,-1230 305.837,-1230"/>
<polygon fill="none" stroke="black" points="305.566,-1226.5 295.566,-1230 305.566,-1233.5 305.566,-1226.5"/>
</g>
<!-- \\lib\\Helper\\Writer\\Schema -->
<g id="node3" class="node"><title>\\lib\\Helper\\Writer\\Schema</title>
<polygon fill="none" stroke="black" points="702.5,-1248 645.5,-1248 645.5,-1212 702.5,-1212 702.5,-1248"/>
<text text-anchor="middle" x="674" y="-1227.2" font-family="Courier,monospace" font-size="11.00">Schema</text>
</g>
<!-- \\lib\\Helper\\Writer\\Schema&#45;&gt;\\lib\\Helper\\Writer\\AbstractWriter -->
<g id="edge4" class="edge"><title>\\lib\\Helper\\Writer\\Schema&#45;&gt;\\lib\\Helper\\Writer\\AbstractWriter</title>
<path fill="none" stroke="black" d="M645.353,-1230C616.782,-1230 571.151,-1230 533.33,-1230"/>
<polygon fill="none" stroke="black" points="532.89,-1226.5 522.89,-1230 532.89,-1233.5 532.89,-1226.5"/>
</g>
<!-- \\lib\\Helper\\Writer\\Migration -->
<g id="node4" class="node"><title>\\lib\\Helper\\Writer\\Migration</title>
<polygon fill="none" stroke="black" points="712.5,-1194 635.5,-1194 635.5,-1158 712.5,-1158 712.5,-1194"/>
<text text-anchor="middle" x="674" y="-1173.2" font-family="Courier,monospace" font-size="11.00">Migration</text>
</g>
<!-- \\lib\\Helper\\Writer\\Migration&#45;&gt;\\lib\\Helper\\Writer\\AbstractWriter -->
<g id="edge5" class="edge"><title>\\lib\\Helper\\Writer\\Migration&#45;&gt;\\lib\\Helper\\Writer\\AbstractWriter</title>
<path fill="none" stroke="black" d="M635.4,-1185.9C606.679,-1193.47 566.409,-1204.08 532.565,-1212.99"/>
<polygon fill="none" stroke="black" points="531.525,-1209.65 522.747,-1215.58 533.309,-1216.42 531.525,-1209.65"/>
</g>
<!-- \\lib\\Helper\\Init -->
<g id="node5" class="node"><title>\\lib\\Helper\\Init</title>
<polygon fill="none" stroke="black" points="701,-1140 647,-1140 647,-1104 701,-1104 701,-1140"/>
<text text-anchor="middle" x="674" y="-1119.2" font-family="Courier,monospace" font-size="11.00">Init</text>
</g>
<!-- \\lib\\Helper\\Helper -->
<g id="node6" class="node"><title>\\lib\\Helper\\Helper</title>
<polygon fill="none" stroke="black" points="509,-1005 425,-1005 425,-969 509,-969 509,-1005"/>
<text text-anchor="start" x="433" y="-990.2" font-family="Courier,monospace" font-size="11.00">«abstract»</text>
<text text-anchor="start" x="446.5" y="-978.2" font-family="Courier,monospace" font-size="11.00">Helper</text>
</g>
<!-- \\lib\\Helper\\Init&#45;&gt;\\lib\\Helper\\Helper -->
<g id="edge1" class="edge"><title>\\lib\\Helper\\Init&#45;&gt;\\lib\\Helper\\Helper</title>
<path fill="none" stroke="black" d="M646.946,-1112.99C634.759,-1108.32 620.263,-1102.11 608,-1095 566.184,-1070.76 522.844,-1035.48 495.674,-1011.91"/>
<polygon fill="none" stroke="black" points="497.948,-1009.25 488.118,-1005.3 493.337,-1014.52 497.948,-1009.25"/>
</g>
<!-- \\lib\\Helper\\Migrations -->
<g id="node7" class="node"><title>\\lib\\Helper\\Migrations</title>
<polygon fill="none" stroke="black" points="716,-1086 632,-1086 632,-1050 716,-1050 716,-1086"/>
<text text-anchor="middle" x="674" y="-1065.2" font-family="Courier,monospace" font-size="11.00">Migrations</text>
</g>
<!-- \\lib\\Helper\\Migrations&#45;&gt;\\lib\\Helper\\Helper -->
<g id="edge6" class="edge"><title>\\lib\\Helper\\Migrations&#45;&gt;\\lib\\Helper\\Helper</title>
<path fill="none" stroke="black" d="M631.515,-1051.61C598.898,-1038.72 553.321,-1020.71 518.568,-1006.98"/>
<polygon fill="none" stroke="black" points="519.659,-1003.65 509.073,-1003.23 517.087,-1010.16 519.659,-1003.65"/>
</g>
<!-- \\lib\\Helper\\Schema -->
<g id="node8" class="node"><title>\\lib\\Helper\\Schema</title>
<polygon fill="none" stroke="black" points="702.5,-1032 645.5,-1032 645.5,-996 702.5,-996 702.5,-1032"/>
<text text-anchor="middle" x="674" y="-1011.2" font-family="Courier,monospace" font-size="11.00">Schema</text>
</g>
<!-- \\lib\\Helper\\Schema&#45;&gt;\\lib\\Helper\\Helper -->
<g id="edge7" class="edge"><title>\\lib\\Helper\\Schema&#45;&gt;\\lib\\Helper\\Helper</title>
<path fill="none" stroke="black" d="M645.353,-1010.36C613.181,-1006.12 559.376,-999.035 519.449,-993.776"/>
<polygon fill="none" stroke="black" points="519.733,-990.283 509.361,-992.448 518.819,-997.224 519.733,-990.283"/>
</g>
<!-- \\lib\\Helper\\Filesystem -->
<g id="node9" class="node"><title>\\lib\\Helper\\Filesystem</title>
<polygon fill="none" stroke="black" points="716,-978 632,-978 632,-942 716,-942 716,-978"/>
<text text-anchor="middle" x="674" y="-957.2" font-family="Courier,monospace" font-size="11.00">Filesystem</text>
</g>
<!-- \\lib\\Helper\\Filesystem&#45;&gt;\\lib\\Helper\\Helper -->
<g id="edge8" class="edge"><title>\\lib\\Helper\\Filesystem&#45;&gt;\\lib\\Helper\\Helper</title>
<path fill="none" stroke="black" d="M631.515,-965.464C599.038,-969.741 553.71,-975.711 519.014,-980.281"/>
<polygon fill="none" stroke="black" points="518.53,-976.814 509.073,-981.59 519.444,-983.755 518.53,-976.814"/>
</g>
<!-- \\lib\\Helper\\Output -->
<g id="node10" class="node"><title>\\lib\\Helper\\Output</title>
<polygon fill="none" stroke="black" points="702.5,-924 645.5,-924 645.5,-888 702.5,-888 702.5,-924"/>
<text text-anchor="middle" x="674" y="-903.2" font-family="Courier,monospace" font-size="11.00">Output</text>
</g>
<!-- \\lib\\Helper\\Output&#45;&gt;\\lib\\Helper\\Helper -->
<g id="edge9" class="edge"><title>\\lib\\Helper\\Output&#45;&gt;\\lib\\Helper\\Helper</title>
<path fill="none" stroke="black" d="M645.421,-917.281C633.837,-922.065 620.237,-927.74 608,-933 575.828,-946.829 568.704,-952.482 536,-965 530.506,-967.103 524.716,-969.181 518.926,-971.172"/>
<polygon fill="none" stroke="black" points="517.6,-967.925 509.237,-974.429 519.831,-974.56 517.6,-967.925"/>
</g>
<!-- \\lib\\Helper\\Container -->
<g id="node11" class="node"><title>\\lib\\Helper\\Container</title>
<polygon fill="none" stroke="black" points="712.5,-870 635.5,-870 635.5,-834 712.5,-834 712.5,-870"/>
<text text-anchor="middle" x="674" y="-849.2" font-family="Courier,monospace" font-size="11.00">Container</text>
</g>
<!-- \\lib\\Helper\\Db -->
<g id="node12" class="node"><title>\\lib\\Helper\\Db</title>
<polygon fill="none" stroke="black" points="701,-816 647,-816 647,-780 701,-780 701,-816"/>
<text text-anchor="middle" x="674" y="-795.2" font-family="Courier,monospace" font-size="11.00">Db</text>
</g>
<!-- \\lib\\Helper\\Db&#45;&gt;\\lib\\Helper\\Helper -->
<g id="edge10" class="edge"><title>\\lib\\Helper\\Db&#45;&gt;\\lib\\Helper\\Helper</title>
<path fill="none" stroke="black" d="M646.906,-804.246C633.987,-808.399 618.871,-814.979 608,-825 556.555,-872.423 589.319,-919.693 536,-965 530.854,-969.373 524.823,-972.88 518.516,-975.693"/>
<polygon fill="none" stroke="black" points="517.199,-972.45 509.148,-979.337 519.737,-978.974 517.199,-972.45"/>
</g>
<!-- \\lib\\deployController -->
<g id="node14" class="node"><title>\\lib\\deployController</title>
<polygon fill="none" stroke="black" points="736.5,-762 611.5,-762 611.5,-726 736.5,-726 736.5,-762"/>
<text text-anchor="middle" x="674" y="-741.2" font-family="Courier,monospace" font-size="11.00">deployController</text>
</g>
<!-- \\lib\\DatasetsController -->
<g id="node15" class="node"><title>\\lib\\DatasetsController</title>
<polygon fill="none" stroke="black" points="536,-492 398,-492 398,-456 536,-456 536,-492"/>
<text text-anchor="start" x="433" y="-477.2" font-family="Courier,monospace" font-size="11.00">«abstract»</text>
<text text-anchor="start" x="406" y="-465.2" font-family="Courier,monospace" font-size="11.00">DatasetsController</text>
</g>
<!-- \\lib\\deployController&#45;&gt;\\lib\\DatasetsController -->
<g id="edge11" class="edge"><title>\\lib\\deployController&#45;&gt;\\lib\\DatasetsController</title>
<path fill="none" stroke="black" d="M618.443,-725.796C614.627,-723.227 611.08,-720.31 608,-717 539.066,-642.919 605.515,-574.537 536,-501 535.215,-500.169 534.401,-499.364 533.561,-498.582"/>
<polygon fill="none" stroke="black" points="535.417,-495.591 525.384,-492.186 531.104,-501.104 535.417,-495.591"/>
</g>
<!-- \\lib\\AbstractController -->
<g id="node27" class="node"><title>\\lib\\AbstractController</title>
<polygon fill="none" stroke="black" points="326,-573 188,-573 188,-537 326,-537 326,-573"/>
<text text-anchor="start" x="223" y="-558.2" font-family="Courier,monospace" font-size="11.00">«abstract»</text>
<text text-anchor="start" x="196" y="-546.2" font-family="Courier,monospace" font-size="11.00">AbstractController</text>
</g>
<!-- \\lib\\DatasetsController&#45;&gt;\\lib\\AbstractController -->
<g id="edge12" class="edge"><title>\\lib\\DatasetsController&#45;&gt;\\lib\\AbstractController</title>
<path fill="none" stroke="black" d="M419.58,-492.077C388.304,-504.257 346.884,-520.387 313.811,-533.266"/>
<polygon fill="none" stroke="black" points="312.327,-530.088 304.278,-536.978 314.867,-536.611 312.327,-530.088"/>
</g>
<!-- \\lib\\schemaController -->
<g id="node16" class="node"><title>\\lib\\schemaController</title>
<polygon fill="none" stroke="black" points="736.5,-708 611.5,-708 611.5,-672 736.5,-672 736.5,-708"/>
<text text-anchor="middle" x="674" y="-687.2" font-family="Courier,monospace" font-size="11.00">schemaController</text>
</g>
<!-- \\lib\\schemaController&#45;&gt;\\lib\\DatasetsController -->
<g id="edge13" class="edge"><title>\\lib\\schemaController&#45;&gt;\\lib\\DatasetsController</title>
<path fill="none" stroke="black" d="M619.418,-671.863C615.291,-669.269 611.411,-666.328 608,-663 551.607,-607.974 592.824,-555.581 536,-501 534.912,-499.955 533.779,-498.949 532.607,-497.98"/>
<polygon fill="none" stroke="black" points="534.552,-495.069 524.377,-492.118 530.491,-500.77 534.552,-495.069"/>
</g>
<!-- \\lib\\DbDiff -->
<g id="node17" class="node"><title>\\lib\\DbDiff</title>
<polygon fill="none" stroke="black" points="702.5,-654 645.5,-654 645.5,-618 702.5,-618 702.5,-654"/>
<text text-anchor="middle" x="674" y="-633.2" font-family="Courier,monospace" font-size="11.00">DbDiff</text>
</g>
<!-- \\lib\\applydsController -->
<g id="node18" class="node"><title>\\lib\\applydsController</title>
<polygon fill="none" stroke="black" points="739.5,-600 608.5,-600 608.5,-564 739.5,-564 739.5,-600"/>
<text text-anchor="middle" x="674" y="-579.2" font-family="Courier,monospace" font-size="11.00">applydsController</text>
</g>
<!-- \\lib\\applydsController&#45;&gt;\\lib\\DatasetsController -->
<g id="edge14" class="edge"><title>\\lib\\applydsController&#45;&gt;\\lib\\DatasetsController</title>
<path fill="none" stroke="black" d="M625.469,-563.889C619.477,-561.134 613.519,-558.15 608,-555 573.259,-535.173 570.895,-520.553 536,-501 533.174,-499.417 530.237,-497.881 527.238,-496.399"/>
<polygon fill="none" stroke="black" points="528.647,-493.194 518.107,-492.12 525.677,-499.533 528.647,-493.194"/>
</g>
<!-- \\lib\\upgradeController -->
<g id="node19" class="node"><title>\\lib\\upgradeController</title>
<polygon fill="none" stroke="black" points="532.5,-654 401.5,-654 401.5,-618 532.5,-618 532.5,-654"/>
<text text-anchor="middle" x="467" y="-633.2" font-family="Courier,monospace" font-size="11.00">upgradeController</text>
</g>
<!-- \\lib\\upgradeController&#45;&gt;\\lib\\AbstractController -->
<g id="edge15" class="edge"><title>\\lib\\upgradeController&#45;&gt;\\lib\\AbstractController</title>
<path fill="none" stroke="black" d="M419.58,-617.923C388.304,-605.743 346.884,-589.613 313.811,-576.734"/>
<polygon fill="none" stroke="black" points="314.867,-573.389 304.278,-573.022 312.327,-579.912 314.867,-573.389"/>
</g>
<!-- \\lib\\createController -->
<g id="node20" class="node"><title>\\lib\\createController</title>
<polygon fill="none" stroke="black" points="736.5,-546 611.5,-546 611.5,-510 736.5,-510 736.5,-546"/>
<text text-anchor="middle" x="674" y="-525.2" font-family="Courier,monospace" font-size="11.00">createController</text>
</g>
<!-- \\lib\\createController&#45;&gt;\\lib\\DatasetsController -->
<g id="edge16" class="edge"><title>\\lib\\createController&#45;&gt;\\lib\\DatasetsController</title>
<path fill="none" stroke="black" d="M611.493,-511.798C590.936,-506.383 567.745,-500.274 546.096,-494.572"/>
<polygon fill="none" stroke="black" points="546.835,-491.147 536.273,-491.984 545.052,-497.916 546.835,-491.147"/>
</g>
<!-- \\lib\\gcController -->
<g id="node21" class="node"><title>\\lib\\gcController</title>
<polygon fill="none" stroke="black" points="723,-492 625,-492 625,-456 723,-456 723,-492"/>
<text text-anchor="middle" x="674" y="-471.2" font-family="Courier,monospace" font-size="11.00">gcController</text>
</g>
<!-- \\lib\\gcController&#45;&gt;\\lib\\DatasetsController -->
<g id="edge17" class="edge"><title>\\lib\\gcController&#45;&gt;\\lib\\DatasetsController</title>
<path fill="none" stroke="black" d="M624.937,-474C601.536,-474 572.802,-474 546.345,-474"/>
<polygon fill="none" stroke="black" points="546.332,-470.5 536.332,-474 546.332,-477.5 546.332,-470.5"/>
</g>
<!-- \\lib\\listController -->
<g id="node22" class="node"><title>\\lib\\listController</title>
<polygon fill="none" stroke="black" points="522.5,-600 411.5,-600 411.5,-564 522.5,-564 522.5,-600"/>
<text text-anchor="middle" x="467" y="-579.2" font-family="Courier,monospace" font-size="11.00">listController</text>
</g>
<!-- \\lib\\listController&#45;&gt;\\lib\\AbstractController -->
<g id="edge18" class="edge"><title>\\lib\\listController&#45;&gt;\\lib\\AbstractController</title>
<path fill="none" stroke="black" d="M411.35,-574.906C388.394,-571.926 361.262,-568.404 336.25,-565.157"/>
<polygon fill="none" stroke="black" points="336.416,-561.65 326.048,-563.833 335.515,-568.591 336.416,-561.65"/>
</g>
<!-- \\lib\\initController -->
<g id="node23" class="node"><title>\\lib\\initController</title>
<polygon fill="none" stroke="black" points="729.5,-438 618.5,-438 618.5,-402 729.5,-402 729.5,-438"/>
<text text-anchor="middle" x="674" y="-417.2" font-family="Courier,monospace" font-size="11.00">initController</text>
</g>
<!-- \\lib\\initController&#45;&gt;\\lib\\DatasetsController -->
<g id="edge19" class="edge"><title>\\lib\\initController&#45;&gt;\\lib\\DatasetsController</title>
<path fill="none" stroke="black" d="M618.333,-434.4C596.128,-440.249 570.063,-447.115 545.929,-453.472"/>
<polygon fill="none" stroke="black" points="544.858,-450.135 536.079,-456.067 546.641,-456.904 544.858,-450.135"/>
</g>
<!-- \\lib\\MysqliHelper -->
<g id="node24" class="node"><title>\\lib\\MysqliHelper</title>
<polygon fill="none" stroke="black" points="723,-384 625,-384 625,-348 723,-348 723,-384"/>
<text text-anchor="middle" x="674" y="-363.2" font-family="Courier,monospace" font-size="11.00">MysqliHelper</text>
</g>
<!-- \\lib\\migrateController -->
<g id="node25" class="node"><title>\\lib\\migrateController</title>
<polygon fill="none" stroke="black" points="739.5,-330 608.5,-330 608.5,-294 739.5,-294 739.5,-330"/>
<text text-anchor="middle" x="674" y="-309.2" font-family="Courier,monospace" font-size="11.00">migrateController</text>
</g>
<!-- \\lib\\migrateController&#45;&gt;\\lib\\DatasetsController -->
<g id="edge20" class="edge"><title>\\lib\\migrateController&#45;&gt;\\lib\\DatasetsController</title>
<path fill="none" stroke="black" d="M623.712,-330.138C618.255,-332.824 612.905,-335.783 608,-339 560.771,-369.974 515.489,-418.108 489.775,-447.753"/>
<polygon fill="none" stroke="black" points="486.904,-445.724 483.055,-455.595 492.22,-450.279 486.904,-445.724"/>
</g>
<!-- \\lib\\AbstractMigration -->
<g id="node26" class="node"><title>\\lib\\AbstractMigration</title>
<polygon fill="none" stroke="black" points="739.5,-276 608.5,-276 608.5,-240 739.5,-240 739.5,-276"/>
<text text-anchor="start" x="640" y="-261.2" font-family="Courier,monospace" font-size="11.00">«abstract»</text>
<text text-anchor="start" x="616.5" y="-249.2" font-family="Courier,monospace" font-size="11.00">AbstractMigration</text>
</g>
<!-- \\lib\\IController -->
<g id="node35" class="node"><title>\\lib\\IController</title>
<polygon fill="none" stroke="black" points="115.5,-627 24.5,-627 24.5,-591 115.5,-591 115.5,-627"/>
<text text-anchor="middle" x="70" y="-606.2" font-family="Courier,monospace" font-size="11.00">IController</text>
</g>
<!-- \\lib\\AbstractController&#45;&gt;\\lib\\IController -->
<g id="edge21" class="edge"><title>\\lib\\AbstractController&#45;&gt;\\lib\\IController</title>
<path fill="none" stroke="black" stroke-dasharray="1,5" d="M194.14,-573.056C171.823,-579.57 146.824,-586.868 125.211,-593.176"/>
<polygon fill="none" stroke="black" points="124.159,-589.837 115.541,-595.999 126.121,-596.557 124.159,-589.837"/>
</g>
<!-- \\lib\\ControllersChain -->
<g id="node28" class="node"><title>\\lib\\ControllersChain</title>
<polygon fill="none" stroke="black" points="319.5,-681 194.5,-681 194.5,-645 319.5,-645 319.5,-681"/>
<text text-anchor="middle" x="257" y="-660.2" font-family="Courier,monospace" font-size="11.00">ControllersChain</text>
</g>
<!-- \\lib\\ControllersChain&#45;&gt;\\lib\\IController -->
<g id="edge22" class="edge"><title>\\lib\\ControllersChain&#45;&gt;\\lib\\IController</title>
<path fill="none" stroke="black" stroke-dasharray="1,5" d="M194.398,-645.019C172.066,-638.5 147.019,-631.189 125.357,-624.866"/>
<polygon fill="none" stroke="black" points="126.244,-621.479 115.664,-622.037 124.282,-628.199 126.244,-621.479"/>
</g>
<!-- \\lib\\verifyController -->
<g id="node29" class="node"><title>\\lib\\verifyController</title>
<polygon fill="none" stroke="black" points="736.5,-222 611.5,-222 611.5,-186 736.5,-186 736.5,-222"/>
<text text-anchor="middle" x="674" y="-201.2" font-family="Courier,monospace" font-size="11.00">verifyController</text>
</g>
<!-- \\lib\\verifyController&#45;&gt;\\lib\\DatasetsController -->
<g id="edge23" class="edge"><title>\\lib\\verifyController&#45;&gt;\\lib\\DatasetsController</title>
<path fill="none" stroke="black" d="M620.431,-222.147C615.989,-224.753 611.764,-227.693 608,-231 538.512,-292.057 495.056,-396.324 477.265,-446.038"/>
<polygon fill="none" stroke="black" points="473.854,-445.189 473.858,-455.784 480.462,-447.499 473.854,-445.189"/>
</g>
<!-- \\lib\\recoverController -->
<g id="node30" class="node"><title>\\lib\\recoverController</title>
<polygon fill="none" stroke="black" points="532.5,-546 401.5,-546 401.5,-510 532.5,-510 532.5,-546"/>
<text text-anchor="middle" x="467" y="-525.2" font-family="Courier,monospace" font-size="11.00">recoverController</text>
</g>
<!-- \\lib\\recoverController&#45;&gt;\\lib\\AbstractController -->
<g id="edge24" class="edge"><title>\\lib\\recoverController&#45;&gt;\\lib\\AbstractController</title>
<path fill="none" stroke="black" d="M401.328,-536.395C380.737,-539.068 357.735,-542.054 336.289,-544.837"/>
<polygon fill="none" stroke="black" points="335.699,-541.385 326.233,-546.143 336.6,-548.326 335.699,-541.385"/>
</g>
<!-- \\lib\\helpController -->
<g id="node31" class="node"><title>\\lib\\helpController</title>
<polygon fill="none" stroke="black" points="312.5,-627 201.5,-627 201.5,-591 312.5,-591 312.5,-627"/>
<text text-anchor="middle" x="257" y="-606.2" font-family="Courier,monospace" font-size="11.00">helpController</text>
</g>
<!-- \\lib\\helpController&#45;&gt;\\lib\\IController -->
<g id="edge25" class="edge"><title>\\lib\\helpController&#45;&gt;\\lib\\IController</title>
<path fill="none" stroke="black" stroke-dasharray="1,5" d="M201.494,-609C177.727,-609 149.908,-609 126.076,-609"/>
<polygon fill="none" stroke="black" points="125.783,-605.5 115.783,-609 125.783,-612.5 125.783,-605.5"/>
</g>
<!-- \\lib\\GetOpt -->
<g id="node32" class="node"><title>\\lib\\GetOpt</title>
<polygon fill="none" stroke="black" points="702.5,-168 645.5,-168 645.5,-132 702.5,-132 702.5,-168"/>
<text text-anchor="middle" x="674" y="-147.2" font-family="Courier,monospace" font-size="11.00">GetOpt</text>
</g>
<!-- \\lib\\getsqlController -->
<g id="node33" class="node"><title>\\lib\\getsqlController</title>
<polygon fill="none" stroke="black" points="736.5,-114 611.5,-114 611.5,-78 736.5,-78 736.5,-114"/>
<text text-anchor="middle" x="674" y="-93.2" font-family="Courier,monospace" font-size="11.00">getsqlController</text>
</g>
<!-- \\lib\\getsqlController&#45;&gt;\\lib\\DatasetsController -->
<g id="edge26" class="edge"><title>\\lib\\getsqlController&#45;&gt;\\lib\\DatasetsController</title>
<path fill="none" stroke="black" d="M618.964,-114.198C614.984,-116.774 611.26,-119.693 608,-123 515.283,-217.041 481.815,-380.207 471.745,-445.648"/>
<polygon fill="none" stroke="black" points="468.268,-445.237 470.275,-455.64 475.194,-446.256 468.268,-445.237"/>
</g>
<!-- \\lib\\AbstractSchema -->
<g id="node34" class="node"><title>\\lib\\AbstractSchema</title>
<polygon fill="none" stroke="black" points="729.5,-60 618.5,-60 618.5,-24 729.5,-24 729.5,-60"/>
<text text-anchor="start" x="640" y="-45.2" font-family="Courier,monospace" font-size="11.00">«abstract»</text>
<text text-anchor="start" x="626.5" y="-33.2" font-family="Courier,monospace" font-size="11.00">AbstractSchema</text>
</g>
</g>
</svg>
