<?xml version="1.0" encoding="UTF-8" standalone="no"?>
<!DOCTYPE svg PUBLIC "-//W3C//DTD SVG 1.1//EN"
 "http://www.w3.org/Graphics/SVG/1.1/DTD/svg11.dtd">
<!-- Generated by graphviz version 2.28.0 (20111211.2114)
 -->
<!-- Title: G Pages: 1 -->
<svg width="760pt" height="852pt"
 viewBox="0.00 0.00 760.00 852.00" xmlns="http://www.w3.org/2000/svg" xmlns:xlink="http://www.w3.org/1999/xlink">
<g id="graph1" class="graph" transform="scale(1 1) rotate(0) translate(4 848)">
<title>G</title>
<polygon fill="white" stroke="white" points="-4,5 -4,-848 757,-848 757,5 -4,5"/>
<g id="graph2" class="cluster"><title>cluster_lib</title>
<polyline fill="none" stroke="gray" points="20,-8 732,-8 "/>
<path fill="none" stroke="gray" d="M732,-8C738,-8 744,-14 744,-20"/>
<polyline fill="none" stroke="gray" points="744,-20 744,-824 "/>
<path fill="none" stroke="gray" d="M744,-824C744,-830 738,-836 732,-836"/>
<polyline fill="none" stroke="gray" points="732,-836 20,-836 "/>
<path fill="none" stroke="gray" d="M20,-836C14,-836 8,-830 8,-824"/>
<polyline fill="none" stroke="gray" points="8,-824 8,-20 "/>
<path fill="none" stroke="gray" d="M8,-20C8,-14 14,-8 20,-8"/>
<text text-anchor="middle" x="376" y="-823.2" font-family="Times,serif" font-size="11.00" fill="gray">lib</text>
</g>
<!-- \\lib\\recoverController -->
<g id="node2" class="node"><title>\\lib\\recoverController</title>
<a xlink:href="db_recoverController.class.html" xlink:title="recoverController" target="_parent">
<polygon fill="none" stroke="black" points="315.5,-754 184.5,-754 184.5,-718 315.5,-718 315.5,-754"/>
<text text-anchor="middle" x="250" y="-733.2" font-family="Courier,monospace" font-size="11.00">recoverController</text>
</a>
</g>
<!-- \\lib\\IController -->
<g id="node17" class="node"><title>\\lib\\IController</title>
<a xlink:href="db_IController.class.html" xlink:title="IController" target="_parent">
<polygon fill="none" stroke="black" points="107.5,-646 16.5,-646 16.5,-610 107.5,-610 107.5,-646"/>
<text text-anchor="middle" x="62" y="-625.2" font-family="Courier,monospace" font-size="11.00">IController</text>
</a>
</g>
<!-- \\lib\\recoverController&#45;&gt;\\lib\\IController -->
<g id="edge23" class="edge"><title>\\lib\\recoverController&#45;&gt;\\lib\\IController</title>
<path fill="none" stroke="black" stroke-dasharray="1,5" d="M198.632,-717.878C192.257,-715.124 185.904,-712.144 180,-709 149.119,-692.558 116.602,-669.521 93.7081,-652.216"/>
<polygon fill="none" stroke="black" points="95.8014,-649.411 85.7296,-646.123 91.5527,-654.974 95.8014,-649.411"/>
</g>
<!-- \\lib\\ControllersChain -->
<g id="node3" class="node"><title>\\lib\\ControllersChain</title>
<a xlink:href="db_ControllersChain.class.html" xlink:title="ControllersChain" target="_parent">
<polygon fill="none" stroke="black" points="312.5,-700 187.5,-700 187.5,-664 312.5,-664 312.5,-700"/>
<text text-anchor="middle" x="250" y="-679.2" font-family="Courier,monospace" font-size="11.00">ControllersChain</text>
</a>
</g>
<!-- \\lib\\ControllersChain&#45;&gt;\\lib\\IController -->
<g id="edge25" class="edge"><title>\\lib\\ControllersChain&#45;&gt;\\lib\\IController</title>
<path fill="none" stroke="black" stroke-dasharray="1,5" d="M187.323,-664.094C164.764,-657.544 139.421,-650.187 117.53,-643.831"/>
<polygon fill="none" stroke="black" points="118.317,-640.415 107.737,-640.988 116.365,-647.138 118.317,-640.415"/>
</g>
<!-- \\lib\\migrateController -->
<g id="node4" class="node"><title>\\lib\\migrateController</title>
<a xlink:href="db_migrateController.class.html" xlink:title="migrateController" target="_parent">
<polygon fill="none" stroke="black" points="735.5,-808 604.5,-808 604.5,-772 735.5,-772 735.5,-808"/>
<text text-anchor="middle" x="670" y="-787.2" font-family="Courier,monospace" font-size="11.00">migrateController</text>
</a>
</g>
<!-- \\lib\\DatasetsController -->
<g id="node14" class="node"><title>\\lib\\DatasetsController</title>
<a xlink:href="db_DatasetsController.class.html" xlink:title="«abstract»&lt;br/&gt;DatasetsController" target="_parent">
<polygon fill="none" stroke="black" points="531.5,-484 392.5,-484 392.5,-448 531.5,-448 531.5,-484"/>
<text text-anchor="start" x="428" y="-469.7" font-family="Courier,monospace" font-size="11.00">«abstract»</text>
<text text-anchor="start" x="401" y="-458.7" font-family="Courier,monospace" font-size="11.00">DatasetsController</text>
</a>
</g>
<!-- \\lib\\migrateController&#45;&gt;\\lib\\DatasetsController -->
<g id="edge3" class="edge"><title>\\lib\\migrateController&#45;&gt;\\lib\\DatasetsController</title>
<path fill="none" stroke="black" d="M614.218,-771.999C610.452,-769.386 606.977,-766.403 604,-763 522.216,-669.537 614.747,-585.612 532,-493 531.25,-492.161 530.471,-491.347 529.665,-490.559"/>
<polygon fill="none" stroke="black" points="531.736,-487.731 521.777,-484.118 527.309,-493.153 531.736,-487.731"/>
</g>
<!-- \\lib\\getsqlController -->
<g id="node5" class="node"><title>\\lib\\getsqlController</title>
<a xlink:href="db_getsqlController.class.html" xlink:title="getsqlController" target="_parent">
<polygon fill="none" stroke="black" points="524.5,-592 399.5,-592 399.5,-556 524.5,-556 524.5,-592"/>
<text text-anchor="middle" x="462" y="-571.2" font-family="Courier,monospace" font-size="11.00">getsqlController</text>
</a>
</g>
<!-- \\lib\\AbstractController -->
<g id="node13" class="node"><title>\\lib\\AbstractController</title>
<a xlink:href="db_AbstractController.class.html" xlink:title="«abstract»&lt;br/&gt;AbstractController" target="_parent">
<polygon fill="none" stroke="black" points="319.5,-538 180.5,-538 180.5,-502 319.5,-502 319.5,-538"/>
<text text-anchor="start" x="216" y="-523.7" font-family="Courier,monospace" font-size="11.00">«abstract»</text>
<text text-anchor="start" x="189" y="-512.7" font-family="Courier,monospace" font-size="11.00">AbstractController</text>
</a>
</g>
<!-- \\lib\\getsqlController&#45;&gt;\\lib\\AbstractController -->
<g id="edge5" class="edge"><title>\\lib\\getsqlController&#45;&gt;\\lib\\AbstractController</title>
<path fill="none" stroke="black" d="M399.412,-558.163C377.491,-552.526 352.507,-546.102 329.369,-540.152"/>
<polygon fill="none" stroke="black" points="330.137,-536.736 319.581,-537.635 328.394,-543.515 330.137,-536.736"/>
</g>
<!-- \\lib\\gcController -->
<g id="node6" class="node"><title>\\lib\\gcController</title>
<a xlink:href="db_gcController.class.html" xlink:title="gcController" target="_parent">
<polygon fill="none" stroke="black" points="719,-754 621,-754 621,-718 719,-718 719,-754"/>
<text text-anchor="middle" x="670" y="-733.2" font-family="Courier,monospace" font-size="11.00">gcController</text>
</a>
</g>
<!-- \\lib\\gcController&#45;&gt;\\lib\\DatasetsController -->
<g id="edge7" class="edge"><title>\\lib\\gcController&#45;&gt;\\lib\\DatasetsController</title>
<path fill="none" stroke="black" d="M620.834,-721.663C614.599,-718.266 608.745,-714.099 604,-709 535.066,-634.919 601.698,-566.364 532,-493 531.103,-492.056 530.169,-491.144 529.202,-490.264"/>
<polygon fill="none" stroke="black" points="531.28,-487.446 521.223,-484.11 527.004,-492.989 531.28,-487.446"/>
</g>
<!-- \\lib\\schemaController -->
<g id="node7" class="node"><title>\\lib\\schemaController</title>
<a xlink:href="db_schemaController.class.html" xlink:title="schemaController" target="_parent">
<polygon fill="none" stroke="black" points="732.5,-700 607.5,-700 607.5,-664 732.5,-664 732.5,-700"/>
<text text-anchor="middle" x="670" y="-679.2" font-family="Courier,monospace" font-size="11.00">schemaController</text>
</a>
</g>
<!-- \\lib\\schemaController&#45;&gt;\\lib\\DatasetsController -->
<g id="edge9" class="edge"><title>\\lib\\schemaController&#45;&gt;\\lib\\DatasetsController</title>
<path fill="none" stroke="black" d="M615.418,-663.863C611.291,-661.269 607.411,-658.328 604,-655 547.607,-599.974 588.959,-547.439 532,-493 530.896,-491.945 529.745,-490.929 528.556,-489.952"/>
<polygon fill="none" stroke="black" points="530.388,-486.961 520.203,-484.044 526.346,-492.676 530.388,-486.961"/>
</g>
<!-- \\lib\\Helper -->
<g id="node8" class="node"><title>\\lib\\Helper</title>
<a xlink:href="db_Helper.class.html" xlink:title="Helper" target="_parent">
<polygon fill="none" stroke="black" points="698.5,-646 641.5,-646 641.5,-610 698.5,-610 698.5,-646"/>
<text text-anchor="middle" x="670" y="-625.2" font-family="Courier,monospace" font-size="11.00">Helper</text>
</a>
</g>
<!-- \\lib\\dbDiff -->
<g id="node9" class="node"><title>\\lib\\dbDiff</title>
<a xlink:href="db_dbDiff.class.html" xlink:title="dbDiff" target="_parent">
<polygon fill="none" stroke="black" points="698.5,-592 641.5,-592 641.5,-556 698.5,-556 698.5,-592"/>
<text text-anchor="middle" x="670" y="-571.2" font-family="Courier,monospace" font-size="11.00">dbDiff</text>
</a>
</g>
<!-- \\lib\\MysqliHelper -->
<g id="node10" class="node"><title>\\lib\\MysqliHelper</title>
<a xlink:href="db_MysqliHelper.class.html" xlink:title="MysqliHelper" target="_parent">
<polygon fill="none" stroke="black" points="719,-538 621,-538 621,-502 719,-502 719,-538"/>
<text text-anchor="middle" x="670" y="-517.2" font-family="Courier,monospace" font-size="11.00">MysqliHelper</text>
</a>
</g>
<!-- \\lib\\helpController -->
<g id="node11" class="node"><title>\\lib\\helpController</title>
<a xlink:href="db_helpController.class.html" xlink:title="helpController" target="_parent">
<polygon fill="none" stroke="black" points="305.5,-646 194.5,-646 194.5,-610 305.5,-610 305.5,-646"/>
<text text-anchor="middle" x="250" y="-625.2" font-family="Courier,monospace" font-size="11.00">helpController</text>
</a>
</g>
<!-- \\lib\\helpController&#45;&gt;\\lib\\IController -->
<g id="edge27" class="edge"><title>\\lib\\helpController&#45;&gt;\\lib\\IController</title>
<path fill="none" stroke="black" stroke-dasharray="1,5" d="M194.451,-628C170.252,-628 141.837,-628 117.629,-628"/>
<polygon fill="none" stroke="black" points="117.536,-624.5 107.536,-628 117.536,-631.5 117.536,-624.5"/>
</g>
<!-- \\lib\\initController -->
<g id="node12" class="node"><title>\\lib\\initController</title>
<a xlink:href="db_initController.class.html" xlink:title="initController" target="_parent">
<polygon fill="none" stroke="black" points="725.5,-484 614.5,-484 614.5,-448 725.5,-448 725.5,-484"/>
<text text-anchor="middle" x="670" y="-463.2" font-family="Courier,monospace" font-size="11.00">initController</text>
</a>
</g>
<!-- \\lib\\initController&#45;&gt;\\lib\\DatasetsController -->
<g id="edge11" class="edge"><title>\\lib\\initController&#45;&gt;\\lib\\DatasetsController</title>
<path fill="none" stroke="black" d="M614.337,-466C592.121,-466 566.026,-466 541.82,-466"/>
<polygon fill="none" stroke="black" points="541.578,-462.5 531.578,-466 541.578,-469.5 541.578,-462.5"/>
</g>
<!-- \\lib\\AbstractController&#45;&gt;\\lib\\IController -->
<g id="edge29" class="edge"><title>\\lib\\AbstractController&#45;&gt;\\lib\\IController</title>
<path fill="none" stroke="black" stroke-dasharray="1,5" d="M198.632,-538.122C192.257,-540.876 185.904,-543.856 180,-547 149.119,-563.442 116.602,-586.479 93.7081,-603.784"/>
<polygon fill="none" stroke="black" points="91.5527,-601.026 85.7296,-609.877 95.8014,-606.589 91.5527,-601.026"/>
</g>
<!-- \\lib\\DatasetsController&#45;&gt;\\lib\\AbstractController -->
<g id="edge13" class="edge"><title>\\lib\\DatasetsController&#45;&gt;\\lib\\AbstractController</title>
<path fill="none" stroke="black" d="M392.238,-483.682C372.102,-488.86 349.938,-494.559 329.258,-499.877"/>
<polygon fill="none" stroke="black" points="328.371,-496.491 319.558,-502.371 330.114,-503.27 328.371,-496.491"/>
</g>
<!-- \\lib\\GetOpt -->
<g id="node15" class="node"><title>\\lib\\GetOpt</title>
<a xlink:href="db_GetOpt.class.html" xlink:title="GetOpt" target="_parent">
<polygon fill="none" stroke="black" points="698.5,-430 641.5,-430 641.5,-394 698.5,-394 698.5,-430"/>
<text text-anchor="middle" x="670" y="-409.2" font-family="Courier,monospace" font-size="11.00">GetOpt</text>
</a>
</g>
<!-- \\lib\\AbstractSchema -->
<g id="node16" class="node"><title>\\lib\\AbstractSchema</title>
<a xlink:href="db_AbstractSchema.class.html" xlink:title="«abstract»&lt;br/&gt;AbstractSchema" target="_parent">
<polygon fill="none" stroke="black" points="726,-376 614,-376 614,-340 726,-340 726,-376"/>
<text text-anchor="start" x="636" y="-361.7" font-family="Courier,monospace" font-size="11.00">«abstract»</text>
<text text-anchor="start" x="622.5" y="-350.7" font-family="Courier,monospace" font-size="11.00">AbstractSchema</text>
</a>
</g>
<!-- \\lib\\Registry -->
<g id="node18" class="node"><title>\\lib\\Registry</title>
<a xlink:href="db_Registry.class.html" xlink:title="Registry" target="_parent">
<polygon fill="none" stroke="black" points="705.5,-322 634.5,-322 634.5,-286 705.5,-286 705.5,-322"/>
<text text-anchor="middle" x="670" y="-301.2" font-family="Courier,monospace" font-size="11.00">Registry</text>
</a>
</g>
<!-- \\lib\\createController -->
<g id="node19" class="node"><title>\\lib\\createController</title>
<a xlink:href="db_createController.class.html" xlink:title="createController" target="_parent">
<polygon fill="none" stroke="black" points="732.5,-268 607.5,-268 607.5,-232 732.5,-232 732.5,-268"/>
<text text-anchor="middle" x="670" y="-247.2" font-family="Courier,monospace" font-size="11.00">createController</text>
</a>
</g>
<!-- \\lib\\createController&#45;&gt;\\lib\\DatasetsController -->
<g id="edge15" class="edge"><title>\\lib\\createController&#45;&gt;\\lib\\DatasetsController</title>
<path fill="none" stroke="black" d="M617.827,-268.084C612.945,-270.73 608.242,-273.696 604,-277 545.398,-322.648 499.032,-398.539 476.998,-438.866"/>
<polygon fill="none" stroke="black" points="473.823,-437.38 472.174,-447.846 479.99,-440.693 473.823,-437.38"/>
</g>
<!-- \\lib\\upgradeController -->
<g id="node20" class="node"><title>\\lib\\upgradeController</title>
<a xlink:href="db_upgradeController.class.html" xlink:title="upgradeController" target="_parent">
<polygon fill="none" stroke="black" points="527.5,-538 396.5,-538 396.5,-502 527.5,-502 527.5,-538"/>
<text text-anchor="middle" x="462" y="-517.2" font-family="Courier,monospace" font-size="11.00">upgradeController</text>
</a>
</g>
<!-- \\lib\\upgradeController&#45;&gt;\\lib\\AbstractController -->
<g id="edge17" class="edge"><title>\\lib\\upgradeController&#45;&gt;\\lib\\AbstractController</title>
<path fill="none" stroke="black" d="M396.28,-520C375.264,-520 351.711,-520 329.787,-520"/>
<polygon fill="none" stroke="black" points="329.51,-516.5 319.51,-520 329.51,-523.5 329.51,-516.5"/>
</g>
<!-- \\lib\\deployController -->
<g id="node21" class="node"><title>\\lib\\deployController</title>
<a xlink:href="db_deployController.class.html" xlink:title="deployController" target="_parent">
<polygon fill="none" stroke="black" points="732.5,-214 607.5,-214 607.5,-178 732.5,-178 732.5,-214"/>
<text text-anchor="middle" x="670" y="-193.2" font-family="Courier,monospace" font-size="11.00">deployController</text>
</a>
</g>
<!-- \\lib\\deployController&#45;&gt;\\lib\\DatasetsController -->
<g id="edge19" class="edge"><title>\\lib\\deployController&#45;&gt;\\lib\\DatasetsController</title>
<path fill="none" stroke="black" d="M616.442,-214.159C611.997,-216.763 607.769,-219.699 604,-223 534.148,-284.186 490.209,-388.762 472.274,-438.35"/>
<polygon fill="none" stroke="black" points="468.972,-437.189 468.937,-447.784 475.572,-439.523 468.972,-437.189"/>
</g>
<!-- \\lib\\AbstractMigration -->
<g id="node22" class="node"><title>\\lib\\AbstractMigration</title>
<a xlink:href="db_AbstractMigration.class.html" xlink:title="«abstract»&lt;br/&gt;AbstractMigration" target="_parent">
<polygon fill="none" stroke="black" points="736,-160 604,-160 604,-124 736,-124 736,-160"/>
<text text-anchor="start" x="636" y="-145.7" font-family="Courier,monospace" font-size="11.00">«abstract»</text>
<text text-anchor="start" x="612.5" y="-134.7" font-family="Courier,monospace" font-size="11.00">AbstractMigration</text>
</a>
</g>
<!-- \\lib\\listController -->
<g id="node23" class="node"><title>\\lib\\listController</title>
<a xlink:href="db_listController.class.html" xlink:title="listController" target="_parent">
<polygon fill="none" stroke="black" points="305.5,-592 194.5,-592 194.5,-556 305.5,-556 305.5,-592"/>
<text text-anchor="middle" x="250" y="-571.2" font-family="Courier,monospace" font-size="11.00">listController</text>
</a>
</g>
<!-- \\lib\\listController&#45;&gt;\\lib\\IController -->
<g id="edge31" class="edge"><title>\\lib\\listController&#45;&gt;\\lib\\IController</title>
<path fill="none" stroke="black" stroke-dasharray="1,5" d="M194.451,-589.837C170.144,-596.894 141.583,-605.186 117.305,-612.234"/>
<polygon fill="none" stroke="black" points="116.164,-608.921 107.536,-615.07 118.115,-615.643 116.164,-608.921"/>
</g>
<!-- \\lib\\applydsController -->
<g id="node24" class="node"><title>\\lib\\applydsController</title>
<a xlink:href="db_applydsController.class.html" xlink:title="applydsController" target="_parent">
<polygon fill="none" stroke="black" points="735.5,-106 604.5,-106 604.5,-70 735.5,-70 735.5,-106"/>
<text text-anchor="middle" x="670" y="-85.2" font-family="Courier,monospace" font-size="11.00">applydsController</text>
</a>
</g>
<!-- \\lib\\applydsController&#45;&gt;\\lib\\DatasetsController -->
<g id="edge21" class="edge"><title>\\lib\\applydsController&#45;&gt;\\lib\\DatasetsController</title>
<path fill="none" stroke="black" d="M615.287,-106.005C611.188,-108.627 607.35,-111.611 604,-115 511.076,-209.019 477.109,-372.197 466.834,-437.645"/>
<polygon fill="none" stroke="black" points="463.358,-437.229 465.333,-447.638 470.28,-438.269 463.358,-437.229"/>
</g>
<!-- \\lib\\Output -->
<g id="node25" class="node"><title>\\lib\\Output</title>
<a xlink:href="db_Output.class.html" xlink:title="Output" target="_parent">
<polygon fill="none" stroke="black" points="698.5,-52 641.5,-52 641.5,-16 698.5,-16 698.5,-52"/>
<text text-anchor="middle" x="670" y="-31.2" font-family="Courier,monospace" font-size="11.00">Output</text>
</a>
</g>
</g>
</svg>
