<?xml version="1.0" encoding="UTF-8" standalone="no"?>
<!DOCTYPE svg PUBLIC "-//W3C//DTD SVG 1.1//EN"
 "http://www.w3.org/Graphics/SVG/1.1/DTD/svg11.dtd">
<!-- Generated by graphviz version 2.28.0 (20111211.2114)
 -->
<!-- Title: G Pages: 1 -->
<svg width="760pt" height="798pt"
 viewBox="0.00 0.00 760.00 798.00" xmlns="http://www.w3.org/2000/svg" xmlns:xlink="http://www.w3.org/1999/xlink">
<g id="graph1" class="graph" transform="scale(1 1) rotate(0) translate(4 794)">
<title>G</title>
<polygon fill="white" stroke="white" points="-4,5 -4,-794 757,-794 757,5 -4,5"/>
<g id="graph2" class="cluster"><title>cluster_lib</title>
<polyline fill="none" stroke="gray" points="20,-8 732,-8 "/>
<path fill="none" stroke="gray" d="M732,-8C738,-8 744,-14 744,-20"/>
<polyline fill="none" stroke="gray" points="744,-20 744,-770 "/>
<path fill="none" stroke="gray" d="M744,-770C744,-776 738,-782 732,-782"/>
<polyline fill="none" stroke="gray" points="732,-782 20,-782 "/>
<path fill="none" stroke="gray" d="M20,-782C14,-782 8,-776 8,-770"/>
<polyline fill="none" stroke="gray" points="8,-770 8,-20 "/>
<path fill="none" stroke="gray" d="M8,-20C8,-14 14,-8 20,-8"/>
<text text-anchor="middle" x="376" y="-769.2" font-family="Times,serif" font-size="11.00" fill="gray">lib</text>
</g>
<!-- \\lib\\recoverController -->
<g id="node2" class="node"><title>\\lib\\recoverController</title>
<a xlink:href="db_recoverController.class.html" xlink:title="recoverController" target="_parent">
<polygon fill="none" stroke="black" points="315.5,-713 184.5,-713 184.5,-677 315.5,-677 315.5,-713"/>
<text text-anchor="middle" x="250" y="-692.2" font-family="Courier,monospace" font-size="11.00">recoverController</text>
</a>
</g>
<!-- \\lib\\IController -->
<g id="node17" class="node"><title>\\lib\\IController</title>
<a xlink:href="db_IController.class.html" xlink:title="IController" target="_parent">
<polygon fill="none" stroke="black" points="107.5,-632 16.5,-632 16.5,-596 107.5,-596 107.5,-632"/>
<text text-anchor="middle" x="62" y="-611.2" font-family="Courier,monospace" font-size="11.00">IController</text>
</a>
</g>
<!-- \\lib\\recoverController&#45;&gt;\\lib\\IController -->
<g id="edge23" class="edge"><title>\\lib\\recoverController&#45;&gt;\\lib\\IController</title>
<path fill="none" stroke="black" stroke-dasharray="1,5" d="M201.71,-676.925C194.411,-674.012 186.982,-670.974 180,-668 156.692,-658.072 131.111,-646.36 109.828,-636.386"/>
<polygon fill="none" stroke="black" points="111.222,-633.174 100.684,-632.084 108.242,-639.508 111.222,-633.174"/>
</g>
<!-- \\lib\\ControllersChain -->
<g id="node3" class="node"><title>\\lib\\ControllersChain</title>
<a xlink:href="db_ControllersChain.class.html" xlink:title="ControllersChain" target="_parent">
<polygon fill="none" stroke="black" points="312.5,-659 187.5,-659 187.5,-623 312.5,-623 312.5,-659"/>
<text text-anchor="middle" x="250" y="-638.2" font-family="Courier,monospace" font-size="11.00">ControllersChain</text>
</a>
</g>
<!-- \\lib\\ControllersChain&#45;&gt;\\lib\\IController -->
<g id="edge25" class="edge"><title>\\lib\\ControllersChain&#45;&gt;\\lib\\IController</title>
<path fill="none" stroke="black" stroke-dasharray="1,5" d="M187.323,-632.047C164.866,-628.787 139.649,-625.126 117.826,-621.959"/>
<polygon fill="none" stroke="black" points="118.137,-618.467 107.737,-620.494 117.131,-625.394 118.137,-618.467"/>
</g>
<!-- \\lib\\migrateController -->
<g id="node4" class="node"><title>\\lib\\migrateController</title>
<a xlink:href="db_migrateController.class.html" xlink:title="migrateController" target="_parent">
<polygon fill="none" stroke="black" points="735.5,-754 604.5,-754 604.5,-718 735.5,-718 735.5,-754"/>
<text text-anchor="middle" x="670" y="-733.2" font-family="Courier,monospace" font-size="11.00">migrateController</text>
</a>
</g>
<!-- \\lib\\DatasetsController -->
<g id="node14" class="node"><title>\\lib\\DatasetsController</title>
<a xlink:href="db_DatasetsController.class.html" xlink:title="«abstract»&lt;br/&gt;DatasetsController" target="_parent">
<polygon fill="none" stroke="black" points="531.5,-470 392.5,-470 392.5,-434 531.5,-434 531.5,-470"/>
<text text-anchor="start" x="428" y="-455.7" font-family="Courier,monospace" font-size="11.00">«abstract»</text>
<text text-anchor="start" x="401" y="-444.7" font-family="Courier,monospace" font-size="11.00">DatasetsController</text>
</a>
</g>
<!-- \\lib\\migrateController&#45;&gt;\\lib\\DatasetsController -->
<g id="edge3" class="edge"><title>\\lib\\migrateController&#45;&gt;\\lib\\DatasetsController</title>
<path fill="none" stroke="black" d="M614.376,-717.858C610.575,-715.275 607.049,-712.338 604,-709 531.756,-629.917 605.06,-557.331 532,-479 531.112,-478.048 530.186,-477.128 529.226,-476.241"/>
<polygon fill="none" stroke="black" points="531.328,-473.441 521.292,-470.045 527.02,-478.958 531.328,-473.441"/>
</g>
<!-- \\lib\\getsqlController -->
<g id="node5" class="node"><title>\\lib\\getsqlController</title>
<a xlink:href="db_getsqlController.class.html" xlink:title="getsqlController" target="_parent">
<polygon fill="none" stroke="black" points="524.5,-632 399.5,-632 399.5,-596 524.5,-596 524.5,-632"/>
<text text-anchor="middle" x="462" y="-611.2" font-family="Courier,monospace" font-size="11.00">getsqlController</text>
</a>
</g>
<!-- \\lib\\AbstractController -->
<g id="node13" class="node"><title>\\lib\\AbstractController</title>
<a xlink:href="db_AbstractController.class.html" xlink:title="«abstract»&lt;br/&gt;AbstractController" target="_parent">
<polygon fill="none" stroke="black" points="319.5,-551 180.5,-551 180.5,-515 319.5,-515 319.5,-551"/>
<text text-anchor="start" x="216" y="-536.7" font-family="Courier,monospace" font-size="11.00">«abstract»</text>
<text text-anchor="start" x="189" y="-525.7" font-family="Courier,monospace" font-size="11.00">AbstractController</text>
</a>
</g>
<!-- \\lib\\getsqlController&#45;&gt;\\lib\\AbstractController -->
<g id="edge5" class="edge"><title>\\lib\\getsqlController&#45;&gt;\\lib\\AbstractController</title>
<path fill="none" stroke="black" d="M414.133,-595.923C382.557,-583.743 340.738,-567.613 307.347,-554.734"/>
<polygon fill="none" stroke="black" points="308.313,-551.355 297.723,-551.022 305.794,-557.886 308.313,-551.355"/>
</g>
<!-- \\lib\\gcController -->
<g id="node6" class="node"><title>\\lib\\gcController</title>
<a xlink:href="db_gcController.class.html" xlink:title="gcController" target="_parent">
<polygon fill="none" stroke="black" points="719,-700 621,-700 621,-664 719,-664 719,-700"/>
<text text-anchor="middle" x="670" y="-679.2" font-family="Courier,monospace" font-size="11.00">gcController</text>
</a>
</g>
<!-- \\lib\\gcController&#45;&gt;\\lib\\DatasetsController -->
<g id="edge7" class="edge"><title>\\lib\\gcController&#45;&gt;\\lib\\DatasetsController</title>
<path fill="none" stroke="black" d="M620.806,-667.194C614.65,-663.873 608.826,-659.852 604,-655 544.4,-595.079 592.217,-538.301 532,-479 531.046,-478.061 530.056,-477.153 529.034,-476.276"/>
<polygon fill="none" stroke="black" points="530.784,-473.22 520.647,-470.139 526.65,-478.869 530.784,-473.22"/>
</g>
<!-- \\lib\\schemaController -->
<g id="node7" class="node"><title>\\lib\\schemaController</title>
<a xlink:href="db_schemaController.class.html" xlink:title="schemaController" target="_parent">
<polygon fill="none" stroke="black" points="732.5,-646 607.5,-646 607.5,-610 732.5,-610 732.5,-646"/>
<text text-anchor="middle" x="670" y="-625.2" font-family="Courier,monospace" font-size="11.00">schemaController</text>
</a>
</g>
<!-- \\lib\\schemaController&#45;&gt;\\lib\\DatasetsController -->
<g id="edge9" class="edge"><title>\\lib\\schemaController&#45;&gt;\\lib\\DatasetsController</title>
<path fill="none" stroke="black" d="M616.468,-609.812C612.018,-607.214 607.781,-604.287 604,-601 556.486,-559.69 579.939,-519.816 532,-479 530.653,-477.853 529.252,-476.752 527.806,-475.694"/>
<polygon fill="none" stroke="black" points="529.41,-472.565 519.105,-470.104 525.627,-478.454 529.41,-472.565"/>
</g>
<!-- \\lib\\Helper -->
<g id="node8" class="node"><title>\\lib\\Helper</title>
<a xlink:href="db_Helper.class.html" xlink:title="Helper" target="_parent">
<polygon fill="none" stroke="black" points="698.5,-592 641.5,-592 641.5,-556 698.5,-556 698.5,-592"/>
<text text-anchor="middle" x="670" y="-571.2" font-family="Courier,monospace" font-size="11.00">Helper</text>
</a>
</g>
<!-- \\lib\\dbDiff -->
<g id="node9" class="node"><title>\\lib\\dbDiff</title>
<a xlink:href="db_dbDiff.class.html" xlink:title="dbDiff" target="_parent">
<polygon fill="none" stroke="black" points="698.5,-538 641.5,-538 641.5,-502 698.5,-502 698.5,-538"/>
<text text-anchor="middle" x="670" y="-517.2" font-family="Courier,monospace" font-size="11.00">dbDiff</text>
</a>
</g>
<!-- \\lib\\MysqliHelper -->
<g id="node10" class="node"><title>\\lib\\MysqliHelper</title>
<a xlink:href="db_MysqliHelper.class.html" xlink:title="MysqliHelper" target="_parent">
<polygon fill="none" stroke="black" points="719,-484 621,-484 621,-448 719,-448 719,-484"/>
<text text-anchor="middle" x="670" y="-463.2" font-family="Courier,monospace" font-size="11.00">MysqliHelper</text>
</a>
</g>
<!-- \\lib\\helpController -->
<g id="node11" class="node"><title>\\lib\\helpController</title>
<a xlink:href="db_helpController.class.html" xlink:title="helpController" target="_parent">
<polygon fill="none" stroke="black" points="305.5,-605 194.5,-605 194.5,-569 305.5,-569 305.5,-605"/>
<text text-anchor="middle" x="250" y="-584.2" font-family="Courier,monospace" font-size="11.00">helpController</text>
</a>
</g>
<!-- \\lib\\helpController&#45;&gt;\\lib\\IController -->
<g id="edge27" class="edge"><title>\\lib\\helpController&#45;&gt;\\lib\\IController</title>
<path fill="none" stroke="black" stroke-dasharray="1,5" d="M194.451,-594.918C170.252,-598.431 141.837,-602.556 117.629,-606.07"/>
<polygon fill="none" stroke="black" points="116.929,-602.635 107.536,-607.535 117.935,-609.562 116.929,-602.635"/>
</g>
<!-- \\lib\\initController -->
<g id="node12" class="node"><title>\\lib\\initController</title>
<a xlink:href="db_initController.class.html" xlink:title="initController" target="_parent">
<polygon fill="none" stroke="black" points="725.5,-430 614.5,-430 614.5,-394 725.5,-394 725.5,-430"/>
<text text-anchor="middle" x="670" y="-409.2" font-family="Courier,monospace" font-size="11.00">initController</text>
</a>
</g>
<!-- \\lib\\initController&#45;&gt;\\lib\\DatasetsController -->
<g id="edge11" class="edge"><title>\\lib\\initController&#45;&gt;\\lib\\DatasetsController</title>
<path fill="none" stroke="black" d="M614.337,-422.614C592.022,-426.947 565.793,-432.04 541.496,-436.758"/>
<polygon fill="none" stroke="black" points="540.728,-433.342 531.578,-438.684 542.062,-440.213 540.728,-433.342"/>
</g>
<!-- \\lib\\AbstractController&#45;&gt;\\lib\\IController -->
<g id="edge29" class="edge"><title>\\lib\\AbstractController&#45;&gt;\\lib\\IController</title>
<path fill="none" stroke="black" stroke-dasharray="1,5" d="M201.71,-551.075C194.411,-553.988 186.982,-557.026 180,-560 156.692,-569.928 131.111,-581.64 109.828,-591.614"/>
<polygon fill="none" stroke="black" points="108.242,-588.492 100.684,-595.916 111.222,-594.826 108.242,-588.492"/>
</g>
<!-- \\lib\\DatasetsController&#45;&gt;\\lib\\AbstractController -->
<g id="edge13" class="edge"><title>\\lib\\DatasetsController&#45;&gt;\\lib\\AbstractController</title>
<path fill="none" stroke="black" d="M414.133,-470.077C382.557,-482.257 340.738,-498.387 307.347,-511.266"/>
<polygon fill="none" stroke="black" points="305.794,-508.114 297.723,-514.978 308.313,-514.645 305.794,-508.114"/>
</g>
<!-- \\lib\\GetOpt -->
<g id="node15" class="node"><title>\\lib\\GetOpt</title>
<a xlink:href="db_GetOpt.class.html" xlink:title="GetOpt" target="_parent">
<polygon fill="none" stroke="black" points="698.5,-376 641.5,-376 641.5,-340 698.5,-340 698.5,-376"/>
<text text-anchor="middle" x="670" y="-355.2" font-family="Courier,monospace" font-size="11.00">GetOpt</text>
</a>
</g>
<!-- \\lib\\AbstractSchema -->
<g id="node16" class="node"><title>\\lib\\AbstractSchema</title>
<a xlink:href="db_AbstractSchema.class.html" xlink:title="«abstract»&lt;br/&gt;AbstractSchema" target="_parent">
<polygon fill="none" stroke="black" points="726,-322 614,-322 614,-286 726,-286 726,-322"/>
<text text-anchor="start" x="636" y="-307.7" font-family="Courier,monospace" font-size="11.00">«abstract»</text>
<text text-anchor="start" x="622.5" y="-296.7" font-family="Courier,monospace" font-size="11.00">AbstractSchema</text>
</a>
</g>
<!-- \\lib\\Registry -->
<g id="node18" class="node"><title>\\lib\\Registry</title>
<a xlink:href="db_Registry.class.html" xlink:title="Registry" target="_parent">
<polygon fill="none" stroke="black" points="705.5,-268 634.5,-268 634.5,-232 705.5,-232 705.5,-268"/>
<text text-anchor="middle" x="670" y="-247.2" font-family="Courier,monospace" font-size="11.00">Registry</text>
</a>
</g>
<!-- \\lib\\createController -->
<g id="node19" class="node"><title>\\lib\\createController</title>
<a xlink:href="db_createController.class.html" xlink:title="createController" target="_parent">
<polygon fill="none" stroke="black" points="524.5,-578 399.5,-578 399.5,-542 524.5,-542 524.5,-578"/>
<text text-anchor="middle" x="462" y="-557.2" font-family="Courier,monospace" font-size="11.00">createController</text>
</a>
</g>
<!-- \\lib\\createController&#45;&gt;\\lib\\AbstractController -->
<g id="edge15" class="edge"><title>\\lib\\createController&#45;&gt;\\lib\\AbstractController</title>
<path fill="none" stroke="black" d="M399.412,-552.082C377.589,-549.276 352.73,-546.08 329.679,-543.116"/>
<polygon fill="none" stroke="black" points="329.945,-539.621 319.581,-541.818 329.053,-546.564 329.945,-539.621"/>
</g>
<!-- \\lib\\deployController -->
<g id="node20" class="node"><title>\\lib\\deployController</title>
<a xlink:href="db_deployController.class.html" xlink:title="deployController" target="_parent">
<polygon fill="none" stroke="black" points="732.5,-214 607.5,-214 607.5,-178 732.5,-178 732.5,-214"/>
<text text-anchor="middle" x="670" y="-193.2" font-family="Courier,monospace" font-size="11.00">deployController</text>
</a>
</g>
<!-- \\lib\\deployController&#45;&gt;\\lib\\DatasetsController -->
<g id="edge17" class="edge"><title>\\lib\\deployController&#45;&gt;\\lib\\DatasetsController</title>
<path fill="none" stroke="black" d="M616.86,-214.075C612.277,-216.704 607.904,-219.669 604,-223 537.155,-280.026 492.392,-376.963 473.368,-424.314"/>
<polygon fill="none" stroke="black" points="470,-423.314 469.597,-433.901 476.514,-425.876 470,-423.314"/>
</g>
<!-- \\lib\\AbstractMigration -->
<g id="node21" class="node"><title>\\lib\\AbstractMigration</title>
<a xlink:href="db_AbstractMigration.class.html" xlink:title="«abstract»&lt;br/&gt;AbstractMigration" target="_parent">
<polygon fill="none" stroke="black" points="736,-160 604,-160 604,-124 736,-124 736,-160"/>
<text text-anchor="start" x="636" y="-145.7" font-family="Courier,monospace" font-size="11.00">«abstract»</text>
<text text-anchor="start" x="612.5" y="-134.7" font-family="Courier,monospace" font-size="11.00">AbstractMigration</text>
</a>
</g>
<!-- \\lib\\listController -->
<g id="node22" class="node"><title>\\lib\\listController</title>
<a xlink:href="db_listController.class.html" xlink:title="listController" target="_parent">
<polygon fill="none" stroke="black" points="517.5,-524 406.5,-524 406.5,-488 517.5,-488 517.5,-524"/>
<text text-anchor="middle" x="462" y="-503.2" font-family="Courier,monospace" font-size="11.00">listController</text>
</a>
</g>
<!-- \\lib\\listController&#45;&gt;\\lib\\AbstractController -->
<g id="edge19" class="edge"><title>\\lib\\listController&#45;&gt;\\lib\\AbstractController</title>
<path fill="none" stroke="black" d="M406.373,-513.023C382.985,-516.031 355.227,-519.599 329.688,-522.883"/>
<polygon fill="none" stroke="black" points="329.123,-519.427 319.651,-524.173 330.015,-526.37 329.123,-519.427"/>
</g>
<!-- \\lib\\applydsController -->
<g id="node23" class="node"><title>\\lib\\applydsController</title>
<a xlink:href="db_applydsController.class.html" xlink:title="applydsController" target="_parent">
<polygon fill="none" stroke="black" points="735.5,-106 604.5,-106 604.5,-70 735.5,-70 735.5,-106"/>
<text text-anchor="middle" x="670" y="-85.2" font-family="Courier,monospace" font-size="11.00">applydsController</text>
</a>
</g>
<!-- \\lib\\applydsController&#45;&gt;\\lib\\DatasetsController -->
<g id="edge21" class="edge"><title>\\lib\\applydsController&#45;&gt;\\lib\\DatasetsController</title>
<path fill="none" stroke="black" d="M615.339,-106.057C611.229,-108.668 607.374,-111.635 604,-115 514.011,-204.758 478.506,-360.509 467.329,-423.923"/>
<polygon fill="none" stroke="black" points="463.846,-423.527 465.628,-433.971 470.748,-424.696 463.846,-423.527"/>
</g>
<!-- \\lib\\Output -->
<g id="node24" class="node"><title>\\lib\\Output</title>
<a xlink:href="db_Output.class.html" xlink:title="Output" target="_parent">
<polygon fill="none" stroke="black" points="698.5,-52 641.5,-52 641.5,-16 698.5,-16 698.5,-52"/>
<text text-anchor="middle" x="670" y="-31.2" font-family="Courier,monospace" font-size="11.00">Output</text>
</a>
</g>
</g>
</svg>
